<svg width="186" height="176" viewBox="0 0 186 176" version="1.1" xmlns="http://www.w3.org/2000/svg" xmlns:xlink="http://www.w3.org/1999/xlink">
<title>Vector 61.1</title>
<desc>Created using Figma</desc>
<g id="Canvas" transform="translate(-21 -149)">
<g id="Vector 61.1">
<use xlink:href="#path0_fill" transform="matrix(0.866025 0.5 -0.5 0.866025 80 149)" fill="#1A4746"/>
</g>
</g>
<defs>
<path id="path0_fill" d="M 3.21543 86.6068C 3.86124 81.3591 5.15285 76.2655 7.72647 71.8152C 11.2089 65.7934 17.5479 53.8804 23.6618 49.7925C 29.6791 45.7692 37.5269 41.4006 42.734 36.4531C 49.9864 29.5622 61.1738 24.7986 70.3385 20.5967C 81.7043 15.3857 93.3052 13.3876 104.593 9.27075C 111.745 6.66229 119.231 2.71161 126.802 0.461665C 130.911 -0.759289 132.735 0.632351 135.397 2.41225C 141.232 6.31352 146 9.54464 146 17.4506C 146 23.2764 145.751 33.1003 141.985 37.5857C 140.601 39.2339 139.309 45.3169 139.224 47.5273C 139.047 52.1471 135.803 56.9609 133.578 60.8668C 130.456 66.3471 126.11 71.8657 122.285 76.6602C 120.384 79.0438 115.679 81.8209 112.749 82.8895C 108.629 84.3923 106.497 88.72 102.523 90.1885C 91.8301 94.1395 81.9782 100.399 71.4051 105.038C 66.0538 107.386 60.5893 109.224 55.2815 111.708C 52.4865 113.016 46.0502 115.289 43.2359 115.735C 35.8427 116.906 29.4582 118 21.7797 118C 18.5769 118 5.6791 114.014 4.90328 110.512C 4.4194 108.328 3.71126 106.857 3.71126 104.912C 3.71126 102.879 3.214 101.845 2.57728 100.97C 1.87805 100.01 1.01065 99.2405 0.448911 97.5503C -0.172772 95.6798 -0.397291 89.2947 1.45271 88.5525C 1.59484 88.4955 2.38627 87.6053 3.21543 86.6068Z"/>
</defs>
</svg>
