<?xml version="1.0" encoding="UTF-8"?>
<svg width="106px" height="105px" viewBox="0 0 106 105" version="1.1" xmlns="http://www.w3.org/2000/svg" xmlns:xlink="http://www.w3.org/1999/xlink">
    <!-- Generator: Sketch 48.2 (47327) - http://www.bohemiancoding.com/sketch -->
    <title>pink-blob</title>
    <desc>Created with Sketch.</desc>
    <defs></defs>
    <g id="Desktop-Copy-6" stroke="none" stroke-width="1" fill="none" fill-rule="evenodd" transform="translate(-102.000000, -14.000000)">
        <g id="Group-2" transform="translate(-57.000000, -677.000000)" fill="#E8C4B5" fill-rule="nonzero">
            <path d="M212.283699,691.002193 C225.798177,690.865683 237.698342,697.115848 247.510965,706.220725 C249.762995,707.494579 252.30855,708.955169 253.15037,709.586857 C255.283986,711.186531 256.603053,713.365503 257.856812,715.733723 C259.718433,719.24956 262.175715,722.759728 263.81199,726.394625 C265.891063,731.015378 263.563678,736.57462 262.802954,741.137529 C261.709233,747.702937 260.423897,753.750908 258.288846,760.154339 C254.31801,772.066632 247.466469,781.050353 236.679259,787.815056 C221.930398,797.064312 203.842245,798.529783 188.320532,790.360611 C166.1613,778.69785 155.133801,754.795971 160.227494,730.716686 C164.912815,708.567846 190.337886,691.223867 212.283699,691.002193 Z" id="pink-blob"></path>
        </g>
    </g>
</svg>