<?xml version="1.0" encoding="UTF-8"?>
<svg width="815px" height="500px" viewBox="0 0 815 500" version="1.1" xmlns="http://www.w3.org/2000/svg" xmlns:xlink="http://www.w3.org/1999/xlink">
    <!-- Generator: Sketch 48.2 (47327) - http://www.bohemiancoding.com/sketch -->
    <title>vine-ex</title>
    <desc>Created with Sketch.</desc>
    <defs>
        <polygon id="path-1" points="0 0 100 0 100 113 0 113"></polygon>
    </defs>
    <g id="Main" stroke="none" stroke-width="1" fill="none" fill-rule="evenodd">
        <g id="vine-ex">
            <rect id="Rectangle-5" fill="#101C24" x="0" y="0" width="815" height="500"></rect>
            <g id="vine-logo" transform="translate(358.000000, 194.000000)">
                <mask id="mask-2" fill="white">
                    <use xlink:href="#path-1"></use>
                </mask>
                <g id="path-1"></g>
                <path d="M100,56.1763514 C97.0615429,56.8473317 94.2194402,57.1435175 91.6607331,57.1435175 C77.2688467,57.1435175 66.1884368,47.186198 66.1884368,29.8726604 C66.1884368,21.3864441 69.5002675,16.9734853 74.1837324,16.9734853 C78.6394182,16.9734853 81.6097573,20.933743 81.6097573,28.96796 C81.6097573,33.5360304 80.3748614,38.5420627 79.4626821,41.5039214 C79.4626821,41.5039214 83.8978218,49.168257 96.0250238,46.8163166 C98.6003805,41.1526393 100,33.818179 100,27.3842079 C100,10.0706703 91.0900454,0 74.7551286,0 C57.965362,0 48.1414569,12.7868771 48.1414569,29.6477136 C48.1414569,46.3502801 56.0230401,60.6875709 69.0202663,67.2205046 C63.554984,78.0505898 56.6008126,87.5906522 49.3483675,94.7784233 C36.18996,79.0205634 24.2944338,57.9980348 19.4129462,16.9734853 L0,16.9734853 C8.96911343,85.2983701 35.6979146,107.053994 42.7650899,111.231829 C46.763092,113.607983 50.2049304,113.494984 53.8603781,111.457127 C59.5987828,108.2247 76.8288752,91.1592707 86.3789494,71.1691815 C90.3875788,71.1579517 95.2038854,70.7024431 100,69.6285939 L100,56.1763514 Z" id="Fill-1" fill="#FFFFFF" fill-rule="nonzero" mask="url(#mask-2)"></path>
            </g>
        </g>
    </g>
</svg>