<?xml version="1.0" encoding="UTF-8"?>
<svg width="378px" height="183px" viewBox="0 0 378 183" version="1.1" xmlns="http://www.w3.org/2000/svg" xmlns:xlink="http://www.w3.org/1999/xlink">
    <!-- Generator: Sketch 48.2 (47327) - http://www.bohemiancoding.com/sketch -->
    <title>l-corner-blobs</title>
    <desc>Created with Sketch.</desc>
    <defs></defs>
    <g id="Desktop" stroke="none" stroke-width="1" fill="none" fill-rule="evenodd">
        <g id="l-corner-blobs" transform="translate(-64.000000, -659.000000)" fill-rule="nonzero">
            <path d="M144.890903,549.055514 C151.579103,545.711485 157.636045,542.134719 164.219466,542.662058 C166.864059,532.362644 179.640778,520.062812 188.932592,521.880799 C195.324827,523.131401 200.432443,527.394039 207.380868,526.273263 C213.40566,525.301546 218.247022,521.029434 222.374309,516.90265 C229.719603,509.557285 233.958845,498.977622 242.931083,493.417583 C252.229858,487.654854 263.641437,489.916122 272.79955,494.76461 C285.492877,501.484352 295.172732,511.262598 302.434059,523.637785 C306.874247,531.204621 311.656044,541.334308 320.941183,543.784557 C332.629781,546.869006 347.33185,544.009401 358.891985,541.617642 C370.909272,539.131366 383.721014,532.83623 396.140193,534.999629 C430.917483,541.057648 431.554769,576.937127 420.679286,603.52228 C415.375747,616.487602 407.988829,631.80758 413.124434,646.041015 C416.651754,655.817754 425.490507,664.248156 431.279904,672.747453 C439.7426,685.171656 443.820368,694.352017 440.533466,709.293068 C437.375026,723.650658 425.587391,736.840609 414.998256,746.3066 C390.025694,768.630981 355.404137,790.531222 321.000032,782.559408 C300.634157,777.840766 277.231844,780.757353 257.689848,788.357417 C245.922308,792.933244 235.344655,795.387656 222.725247,791.402466 C211.442848,787.839981 205.674981,778.966063 200.177673,769.264678 C193.168964,756.896453 187.668068,746.329565 173.822674,740.45046 C161.354622,735.155533 149.848671,737.825244 136.750222,737.170735 C124.382858,736.552108 116.187319,730.959351 112.328066,718.66361 C107.723654,703.993835 116.008865,691.062244 123.162829,678.955249 C134.565293,659.659411 152.177706,634.906454 137.277275,612.307208 C131.0829,602.912266 123.576993,594.706493 115.959174,586.479191 C111.211189,581.35148 111.574254,576.766323 115.549208,571.134812 C122.575062,561.181814 134.257487,554.372257 144.890903,549.055514 Z" id="path0_fill" fill="#1A4746"></path>
            <path d="M5.80078802,693.280181 C13.3954194,679.989542 28.2306152,667.574741 43.8200762,666.371864 C46.2988884,665.903373 49.9390248,665.429068 51.2481879,664.992657 C54.5836759,663.880851 57.3391476,662.858323 57.3391476,658.901769 C57.3391476,650.704608 69.8547092,638.455888 78.1888002,640.160561 C82.1833192,640.977653 87.4122207,641.6234 91.0730259,643.323137 C96.1440412,645.677284 100.602171,649.254209 105.831791,651.288141 C119.94681,656.777196 136.31099,655.602595 150.342043,650.233964 C158.900906,646.959312 166.89138,641.969278 176.228909,641.214755 C184.743995,640.526668 191.283351,645.712127 197.781083,650.468209 C205.99475,656.480513 211.397326,661.304293 212.071213,672.020599 C212.80323,683.658959 211.837254,696.786689 207.444432,707.687506 C199.319755,727.847842 176.668837,742.679808 156.960342,749.562208 C132.620043,758.062223 114.879383,775.161291 101.673644,797.001248 C90.0410247,816.239673 76.8065789,838.569077 54.1765449,846.37224 C39.5694228,851.409525 9.33501875,847.881488 8.02628629,827.923964 C6.34156954,802.231585 28.6561901,781.955418 38.7736049,760.221675 C46.8700773,742.829082 36.9533214,730.846961 20.3838182,724.847288 C15.7036428,723.152882 4.43817333,722.946913 1.64258414,718.229706 C-2.57177697,711.117654 2.24168305,699.508645 5.80078802,693.280181 Z" id="path1_fill" fill="#F29954"></path>
            <path d="M205.283699,614.002193 C218.798177,613.865683 230.698342,620.115848 240.510965,629.220725 C242.762995,630.494579 245.30855,631.955169 246.15037,632.586857 C248.283986,634.186531 249.603053,636.365503 250.856812,638.733723 C252.718433,642.24956 255.175715,645.759728 256.81199,649.394625 C258.891063,654.015378 256.563678,659.57462 255.802954,664.137529 C254.709233,670.702937 253.423897,676.750908 251.288846,683.154339 C247.31801,695.066632 240.466469,704.050353 229.679259,710.815056 C214.930398,720.064312 196.842245,721.529783 181.320532,713.360611 C159.1613,701.69785 148.133801,677.795971 153.227494,653.716686 C157.912815,631.567846 183.337886,614.223867 205.283699,614.002193 Z" id="path2_fill" fill="#E8C4B5"></path>
            <path d="M312.770942,1.27420035 C313.059942,0.977959347 313.054942,0.503117347 312.758942,0.213610347 C312.461942,-0.0758976534 311.986942,-0.0704396534 311.697942,0.225800347 L312.770942,1.27420035 Z M298.649942,25.9531003 L297.938942,25.7160003 L298.649942,25.9531003 Z M285.758942,74.8565003 L285.030942,74.6784003 L285.758942,74.8565003 Z M269.111942,145.899 L269.851942,146.016 L269.111942,145.899 Z M292.926942,264.574 L292.676942,265.281 L292.926942,264.574 Z M350.096942,274.112 L350.322942,273.397 L350.096942,274.112 Z M406.456942,306.194 L405.982942,306.775 L406.456942,306.194 Z M424.607942,357.756 L425.338942,357.922 L424.607942,357.756 Z M399.115942,387.121 L398.738942,386.473 L399.115942,387.121 Z M362.408942,380.531 L362.868942,379.939 L362.408942,380.531 Z M316.684942,352.611 L316.884942,351.888 L316.684942,352.611 Z M281.365942,343.073 L281.602942,342.362 L281.365942,343.073 Z M236.161942,336.773 L236.281942,337.513 L236.161942,336.773 Z M220.092942,368.392 L220.692942,367.942 L220.092942,368.392 Z M245.526942,368.161 L244.962942,367.667 L245.526942,368.161 Z M236.624942,349.548 L236.339942,350.242 L236.624942,349.548 Z M203.675942,349.085 L203.338942,348.415 L203.675942,349.085 Z M195.120942,378.161 L194.520942,378.611 L195.120942,378.161 Z M235.179942,370.647 L235.898942,370.861 L235.179942,370.647 Z M189.455942,328.16 L189.664942,327.439 L189.455942,328.16 Z M136.389942,332.206 L136.521942,332.944 L136.389942,332.206 Z M26.5601423,372.323 L27.0376423,372.901 L26.5601423,372.323 Z M10.5480423,391.11 L11.2943423,391.184 L10.5480423,391.11 Z M7.36875234,416.602 L8.11471234,416.68 L7.36875234,416.602 Z M2.85993234,446.661 L2.11698234,446.558 L2.85993234,446.661 Z M1.24137934,502.038 L1.99074234,502.007 L1.24137934,502.038 Z M7.13753234,550.248 L6.41589234,550.452 L7.13753234,550.248 Z M18.2939423,580.307 L17.5963423,580.582 L18.2939423,580.307 Z M76.6774423,664.009 L76.9264423,663.301 L76.6774423,664.009 Z M142.401942,688.981 L142.046942,689.641 L142.401942,688.981 Z M162.980942,738.347 L163.583942,738.792 L162.980942,738.347 Z M152.228942,741.815 L152.740942,741.267 L152.228942,741.815 Z M154.887942,717.305 L155.460942,717.79 L154.887942,717.305 Z M198.704942,696.842 L198.576942,696.103 L198.704942,696.842 Z M268.706942,696.264 L268.882942,695.535 L268.706942,696.264 Z M313.274942,711.987 L313.016942,712.692 L313.274942,711.987 Z M361.599942,717.652 L361.566942,716.903 L361.599942,717.652 Z M438.579942,697.445 C438.912942,697.199 438.983942,696.73 438.737942,696.396 C438.490942,696.063 438.021942,695.993 437.688942,696.239 L438.579942,697.445 Z M311.697942,0.225800347 C304.238942,7.88137035 301.247942,15.7874003 297.938942,25.7160003 L299.361942,26.1903003 C302.661942,16.2887003 305.503942,8.68681035 312.770942,1.27420035 L311.697942,0.225800347 Z M297.938942,25.7160003 C292.561942,41.8479003 289.049942,58.2364003 285.030942,74.6784003 L286.487942,75.0346003 C290.511942,58.5717003 294.009942,42.2428003 299.361942,26.1903003 L297.938942,25.7160003 Z M285.030942,74.6784003 C279.230942,98.4082003 272.189942,121.502 268.370942,145.783 L269.851942,146.016 C273.651942,121.838 280.676942,98.8052003 286.487942,75.0346003 L285.030942,74.6784003 Z M268.370942,145.783 C264.198942,172.316 259.687942,199.913 266.360942,226.604 L267.815942,226.24 C261.229942,199.898 265.669942,172.615 269.851942,146.016 L268.370942,145.783 Z M266.360942,226.604 C268.228942,234.075 270.771942,242.312 274.827942,249.363 C278.894942,256.412 284.615942,262.405 292.676942,265.281 L293.177942,263.867 C285.431942,261.146 280.096942,255.515 276.127942,248.614 C272.146942,241.713 269.673942,233.672 267.815942,226.24 L266.360942,226.604 Z M292.676942,265.281 C301.971942,268.566 311.723942,269.499 321.399942,270.336 C331.076942,271.173 340.683942,271.916 349.870942,274.827 L350.322942,273.397 C340.969942,270.444 331.199942,269.678 321.529942,268.842 C311.859942,268.005 302.295942,267.101 293.177942,263.867 L292.676942,265.281 Z M349.870942,274.827 C370.757942,281.426 389.082942,292.988 405.982942,306.775 L406.930942,305.612 C389.957942,291.77 371.389942,280.065 350.322942,273.397 L349.870942,274.827 Z M405.982942,306.775 C422.431942,320.192 428.633942,336.633 423.876942,357.59 L425.338942,357.922 C430.228942,336.381 423.798942,319.371 406.930942,305.612 L405.982942,306.775 Z M423.876942,357.59 C420.834942,370.992 410.369942,379.702 398.738942,386.473 L399.492942,387.769 C411.215942,380.945 422.153942,371.956 425.338942,357.922 L423.876942,357.59 Z M398.738942,386.473 C391.888942,390.46 385.873942,391.069 380.131942,389.602 C374.345942,388.122 368.774942,384.518 362.868942,379.939 L361.949942,381.124 C367.882942,385.725 373.657942,389.495 379.760942,391.055 C385.908942,392.627 392.326942,391.941 399.492942,387.769 L398.738942,386.473 Z M362.868942,379.939 C348.733942,368.979 334.694942,356.811 316.884942,351.888 L316.485942,353.334 C333.938942,358.159 347.702942,370.077 361.949942,381.124 L362.868942,379.939 Z M316.884942,351.888 C305.008942,348.606 293.253942,346.247 281.602942,342.362 L281.128942,343.785 C292.868942,347.697 304.661942,350.065 316.485942,353.334 L316.884942,351.888 Z M281.602942,342.362 C267.438942,337.64 251.227942,333.587 236.042942,336.032 L236.281942,337.513 C251.083942,335.13 266.997942,339.074 281.128942,343.785 L281.602942,342.362 Z M236.042942,336.032 C228.230942,337.29 221.347942,341.763 217.778942,347.804 C214.183942,353.888 213.991942,361.508 219.492942,368.842 L220.692942,367.942 C215.557942,361.097 215.781942,354.133 219.070942,348.567 C222.385942,342.956 228.854942,338.709 236.281942,337.513 L236.042942,336.032 Z M219.492942,368.842 C222.706942,373.129 227.734942,374.954 232.732942,374.782 C237.722942,374.611 242.763942,372.45 246.090942,368.655 L244.962942,367.667 C241.936942,371.118 237.299942,373.125 232.680942,373.283 C228.068942,373.442 223.555942,371.76 220.692942,367.942 L219.492942,368.842 Z M246.090942,368.655 C247.969942,366.512 248.855942,364.359 248.940942,362.264 C249.009942,360.228 248.290942,358.214 247.143942,356.506 C244.830942,353.082 240.665942,350.395 236.909942,348.854 L236.339942,350.242 C239.950942,351.723 243.816942,354.261 245.901942,357.346 C246.953942,358.894 247.526942,360.456 247.441942,362.203 C247.373942,363.891 246.662942,365.728 244.962942,367.667 L246.090942,368.655 Z M236.909942,348.854 C226.752942,344.687 213.617942,343.257 203.338942,348.415 L204.011942,349.756 C213.762942,344.863 226.412942,346.169 236.339942,350.242 L236.909942,348.854 Z M203.338942,348.415 C197.529942,351.33 193.292942,356.149 191.523942,361.619 C189.748942,367.105 190.470942,373.212 194.520942,378.611 L195.720942,377.711 C191.971942,372.713 191.322942,367.116 192.950942,362.081 C194.584942,357.029 198.524942,352.509 204.011942,349.756 L203.338942,348.415 Z M194.520942,378.611 C205.388942,393.103 230.515942,388.907 235.898942,370.861 L234.460942,370.432 C229.429942,387.302 205.847942,391.214 195.720942,377.711 L194.520942,378.611 Z M235.898942,370.861 C236.888942,367.541 236.070942,364.281 234.553942,361.398 C233.043942,358.541 230.781942,355.94 228.772942,353.931 L227.712942,354.991 C229.684942,356.963 231.805942,359.389 233.225942,362.097 C234.638942,364.78 235.298942,367.622 234.460942,370.432 L235.898942,370.861 Z M228.772942,353.931 C218.481942,343.64 204.094942,331.636 189.664942,327.439 L189.245942,328.88 C203.286942,332.963 217.446942,344.726 227.712942,354.991 L228.772942,353.931 Z M189.664942,327.439 C181.229942,324.996 171.925942,325.273 162.759942,326.528 C153.593942,327.785 144.472942,330.009 136.258942,331.468 L136.521942,332.944 C144.781942,331.477 153.873942,329.259 162.962942,328.014 C172.050942,326.768 181.041942,326.484 189.245942,328.88 L189.664942,327.439 Z M136.258942,331.468 C96.9157423,338.454 57.8686423,345.499 26.0826423,371.745 L27.0376423,372.901 C58.4719423,346.946 97.1157423,339.942 136.521942,332.944 L136.258942,331.468 Z M26.0826423,371.745 C23.4517423,373.917 19.6140423,376.727 16.3280423,379.96 C13.0606423,383.177 10.2111823,386.941 9.80176234,391.035 L11.2943423,391.184 C11.6481423,387.646 14.1567423,384.203 17.3805423,381.028 C20.5857423,377.869 24.3724423,375.101 27.0376423,372.901 L26.0826423,371.745 Z M9.80176234,391.035 C8.95492234,399.508 7.51704234,407.943 6.62278234,416.524 L8.11471234,416.68 C9.00313234,408.147 10.4414223,399.709 11.2943423,391.184 L9.80176234,391.035 Z M6.62278234,416.524 C5.57581234,426.585 3.50909234,436.485 2.11698234,446.558 L3.60287234,446.763 C4.98708234,436.741 7.05788234,426.816 8.11471234,416.68 L6.62278234,416.524 Z M2.11698234,446.558 C-0.425257657,464.974 -0.272027657,483.577 0.492019343,502.069 L1.99074234,502.007 C1.22751434,483.54 1.07162134,465.07 3.60287234,446.763 L2.11698234,446.558 Z M0.492019343,502.069 C1.16406534,518.333 1.94309234,534.635 6.41589234,550.452 L7.85916234,550.044 C3.42353234,534.394 2.66259234,518.266 1.99074234,502.007 L0.492019343,502.069 Z M6.41589234,550.452 C9.34667234,560.798 13.6800423,570.66 17.5963423,580.582 L18.9915423,580.031 C15.0645423,570.083 10.7582423,560.291 7.85916234,550.044 L6.41589234,550.452 Z M17.5963423,580.582 C23.5741423,595.725 29.5961423,613.673 38.4311423,629.358 C47.2778423,645.058 58.9996423,658.579 76.4283423,664.716 L76.9264423,663.301 C59.9826423,657.335 48.4974423,644.167 39.7379423,628.622 C30.9667423,613.063 24.9833423,595.211 18.9915423,580.031 L17.5963423,580.582 Z M76.4283423,664.716 C98.2874423,672.413 121.680942,678.669 142.046942,689.641 L142.757942,688.32 C122.233942,677.275 98.7308423,670.98 76.9264423,663.301 L76.4283423,664.716 Z M142.046942,689.641 C150.153942,694.001 158.621942,701.484 163.390942,710.261 C168.131942,718.965 169.121942,728.776 162.377942,737.901 L163.583942,738.792 C170.765942,729.075 169.646942,718.609 164.707942,709.543 C159.794942,700.549 151.011942,692.771 142.757942,688.32 L142.046942,689.641 Z M162.377942,737.901 C161.344942,739.303 159.685942,740.878 157.815942,741.738 C155.999942,742.583 154.212942,742.643 152.740942,741.267 L151.716942,742.363 C153.799942,744.31 156.313942,744.091 158.448942,743.098 C160.527942,742.119 162.466942,740.298 163.583942,738.792 L162.377942,737.901 Z M152.740942,741.267 C149.514942,738.251 148.919942,733.91 149.805942,729.474 C150.689942,725.007 153.012942,720.679 155.460942,717.79 L154.314942,716.821 C151.772942,719.836 149.277942,724.5 148.334942,729.18 C147.393942,733.892 147.964942,738.855 151.716942,742.363 L152.740942,741.267 Z M155.460942,717.79 C166.067942,705.242 183.047942,700.311 198.831942,697.581 L198.576942,696.103 C182.752942,698.84 165.291942,703.836 154.314942,716.821 L155.460942,717.79 Z M198.831942,697.581 C221.630942,693.637 245.900942,691.512 268.530942,696.993 L268.882942,695.535 C246.012942,690.016 221.437942,692.15 198.576942,696.103 L198.831942,697.581 Z M268.530942,696.993 C283.861942,700.696 298.169942,707.261 313.016942,712.692 L313.531942,711.283 C298.740942,705.874 284.352942,699.279 268.882942,695.535 L268.530942,696.993 Z M313.016942,712.692 C329.171942,718.59 344.696942,719.16 361.633942,718.401 L361.566942,716.903 C344.689942,717.66 329.460942,717.118 313.531942,711.283 L313.016942,712.692 Z M361.633942,718.401 C389.923942,717.133 415.275942,714.636 438.579942,697.445 L437.688942,696.239 C414.737942,713.236 389.816942,715.637 361.566942,716.903 L361.633942,718.401 Z" id="path9_stroke" fill="#FFFFFF"></path>
        </g>
    </g>
</svg>