<?xml version="1.0" encoding="UTF-8"?>
<svg width="370px" height="442px" viewBox="0 0 370 442" version="1.1" xmlns="http://www.w3.org/2000/svg" xmlns:xlink="http://www.w3.org/1999/xlink">
    <!-- Generator: Sketch 48.2 (47327) - http://www.bohemiancoding.com/sketch -->
    <title>lb-corner-blobs</title>
    <desc>Created with Sketch.</desc>
    <defs></defs>
    <g id="Desktop" stroke="none" stroke-width="1" fill="none" fill-rule="evenodd" transform="translate(0.000000, -582.000000)">
        <g id="lb-corner-blobs" transform="translate(-121.000000, 582.000000)" fill-rule="nonzero">
            <path d="M33.8909027,352.055514 C40.5791026,348.711485 46.636045,345.134719 53.2194659,345.662058 C55.8640586,335.362644 68.6407782,323.062812 77.9325921,324.880799 C84.3248273,326.131401 89.4324435,330.394039 96.3808684,329.273263 C102.40566,328.301546 107.247022,324.029434 111.374309,319.90265 C118.719603,312.557285 122.958845,301.977622 131.931083,296.417583 C141.229858,290.654854 152.641437,292.916122 161.79955,297.76461 C174.492877,304.484352 184.172732,314.262598 191.434059,326.637785 C195.874247,334.204621 200.656044,344.334308 209.941183,346.784557 C221.629781,349.869006 236.33185,347.009401 247.891985,344.617642 C259.909272,342.131366 272.721014,335.83623 285.140193,337.999629 C319.917483,344.057648 320.554769,379.937127 309.679286,406.52228 C304.375747,419.487602 296.988829,434.80758 302.124434,449.041015 C305.651754,458.817754 314.490507,467.248156 320.279904,475.747453 C328.7426,488.171656 332.820368,497.352017 329.533466,512.293068 C326.375026,526.650658 314.587391,539.840609 303.998256,549.3066 C279.025694,571.630981 244.404137,593.531222 210.000032,585.559408 C189.634157,580.840766 166.231844,583.757353 146.689848,591.357417 C134.922308,595.933244 124.344655,598.387656 111.725247,594.402466 C100.442848,590.839981 94.6749806,581.966063 89.1776727,572.264678 C82.1689639,559.896453 76.6680677,549.329565 62.8226744,543.45046 C50.3546222,538.155533 38.8486706,540.825244 25.7502221,540.170735 C13.3828582,539.552108 5.18731947,533.959351 1.32806579,521.66361 C-3.27634582,506.993835 5.00886508,494.062244 12.1628291,481.955249 C23.5652934,462.659411 41.1777063,437.906454 26.2772747,415.307208 C20.0828996,405.912266 12.5769931,397.706493 4.95917401,389.479191 C0.211189369,384.35148 0.574253543,379.766323 4.54920833,374.134812 C11.5750621,364.181814 23.2574873,357.372257 33.8909027,352.055514 Z" id="path0_fill-copy" fill="#F29954"></path>
            <path d="M284.21252,305.003424 C305.317921,304.790238 323.902266,314.551048 339.226523,328.770026 C342.743492,330.759388 346.718855,333.040375 348.033516,334.026875 C351.365558,336.525066 353.425529,339.927941 355.38351,343.626362 C358.290781,349.117003 362.12829,354.59879 364.68364,360.275366 C367.930504,367.491541 364.295855,376.173344 363.107841,383.299185 C361.399791,393.552304 359.392496,402.997349 356.058212,412.997511 C349.857005,431.600798 339.157035,445.630568 322.310776,456.194924 C299.277655,470.639378 271.029602,472.927986 246.789527,460.170287 C212.183717,441.956691 194.962202,404.629411 202.916963,367.025077 C210.233974,332.435496 249.940005,305.349611 284.21252,305.003424 Z" id="path2_fill" fill="#E8C4B5"></path>
            <path d="M376.328689,1.27420035 C376.617689,0.977959347 376.612689,0.503117347 376.316689,0.213610347 C376.019689,-0.0758976534 375.544689,-0.0704396534 375.255689,0.225800347 L376.328689,1.27420035 Z M362.207689,25.9531003 L361.496689,25.7160003 L362.207689,25.9531003 Z M349.316689,74.8565003 L348.588689,74.6784003 L349.316689,74.8565003 Z M332.669689,145.899 L333.409689,146.016 L332.669689,145.899 Z M356.484689,264.574 L356.234689,265.281 L356.484689,264.574 Z M413.654689,274.112 L413.880689,273.397 L413.654689,274.112 Z M470.014689,306.194 L469.540689,306.775 L470.014689,306.194 Z M488.165689,357.756 L488.896689,357.922 L488.165689,357.756 Z M462.673689,387.121 L462.296689,386.473 L462.673689,387.121 Z M425.966689,380.531 L426.426689,379.939 L425.966689,380.531 Z M380.242689,352.611 L380.442689,351.888 L380.242689,352.611 Z M344.923689,343.073 L345.160689,342.362 L344.923689,343.073 Z M299.719689,336.773 L299.839689,337.513 L299.719689,336.773 Z M283.650689,368.392 L284.250689,367.942 L283.650689,368.392 Z M309.084689,368.161 L308.520689,367.667 L309.084689,368.161 Z M300.182689,349.548 L299.897689,350.242 L300.182689,349.548 Z M267.233689,349.085 L266.896689,348.415 L267.233689,349.085 Z M258.678689,378.161 L258.078689,378.611 L258.678689,378.161 Z M298.737689,370.647 L299.456689,370.861 L298.737689,370.647 Z M253.013689,328.16 L253.222689,327.439 L253.013689,328.16 Z M199.947689,332.206 L200.079689,332.944 L199.947689,332.206 Z M90.1178893,372.323 L90.5953893,372.901 L90.1178893,372.323 Z M74.1057893,391.11 L74.8520893,391.184 L74.1057893,391.11 Z M70.9264993,416.602 L71.6724593,416.68 L70.9264993,416.602 Z M66.4176793,446.661 L65.6747293,446.558 L66.4176793,446.661 Z M64.7991263,502.038 L65.5484893,502.007 L64.7991263,502.038 Z M70.6952793,550.248 L69.9736393,550.452 L70.6952793,550.248 Z M81.8516893,580.307 L81.1540893,580.582 L81.8516893,580.307 Z M140.235189,664.009 L140.484189,663.301 L140.235189,664.009 Z M205.959689,688.981 L205.604689,689.641 L205.959689,688.981 Z M226.538689,738.347 L227.141689,738.792 L226.538689,738.347 Z M215.786689,741.815 L216.298689,741.267 L215.786689,741.815 Z M218.445689,717.305 L219.018689,717.79 L218.445689,717.305 Z M262.262689,696.842 L262.134689,696.103 L262.262689,696.842 Z M332.264689,696.264 L332.440689,695.535 L332.264689,696.264 Z M376.832689,711.987 L376.574689,712.692 L376.832689,711.987 Z M425.157689,717.652 L425.124689,716.903 L425.157689,717.652 Z M502.137689,697.445 C502.470689,697.199 502.541689,696.73 502.295689,696.396 C502.048689,696.063 501.579689,695.993 501.246689,696.239 L502.137689,697.445 Z M356.234689,265.281 C365.529689,268.566 375.281689,269.499 384.957689,270.336 C394.634689,271.173 404.241689,271.916 413.428689,274.827 L413.880689,273.397 C404.527689,270.444 394.757689,269.678 385.087689,268.842 C375.417689,268.005 365.853689,267.101 356.735689,263.867 L356.234689,265.281 Z M413.428689,274.827 C434.315689,281.426 452.640689,292.988 469.540689,306.775 L470.488689,305.612 C453.515689,291.77 434.947689,280.065 413.880689,273.397 L413.428689,274.827 Z M469.540689,306.775 C485.989689,320.192 492.191689,336.633 487.434689,357.59 L488.896689,357.922 C493.786689,336.381 487.356689,319.371 470.488689,305.612 L469.540689,306.775 Z M487.434689,357.59 C484.392689,370.992 473.927689,379.702 462.296689,386.473 L463.050689,387.769 C474.773689,380.945 485.711689,371.956 488.896689,357.922 L487.434689,357.59 Z M462.296689,386.473 C455.446689,390.46 449.431689,391.069 443.689689,389.602 C437.903689,388.122 432.332689,384.518 426.426689,379.939 L425.507689,381.124 C431.440689,385.725 437.215689,389.495 443.318689,391.055 C449.466689,392.627 455.884689,391.941 463.050689,387.769 L462.296689,386.473 Z M426.426689,379.939 C412.291689,368.979 398.252689,356.811 380.442689,351.888 L380.043689,353.334 C397.496689,358.159 411.260689,370.077 425.507689,381.124 L426.426689,379.939 Z M380.442689,351.888 C368.566689,348.606 356.811689,346.247 345.160689,342.362 L344.686689,343.785 C356.426689,347.697 368.219689,350.065 380.043689,353.334 L380.442689,351.888 Z M345.160689,342.362 C330.996689,337.64 314.785689,333.587 299.600689,336.032 L299.839689,337.513 C314.641689,335.13 330.555689,339.074 344.686689,343.785 L345.160689,342.362 Z M299.600689,336.032 C291.788689,337.29 284.905689,341.763 281.336689,347.804 C277.741689,353.888 277.549689,361.508 283.050689,368.842 L284.250689,367.942 C279.115689,361.097 279.339689,354.133 282.628689,348.567 C285.943689,342.956 292.412689,338.709 299.839689,337.513 L299.600689,336.032 Z M283.050689,368.842 C286.264689,373.129 291.292689,374.954 296.290689,374.782 C301.280689,374.611 306.321689,372.45 309.648689,368.655 L308.520689,367.667 C305.494689,371.118 300.857689,373.125 296.238689,373.283 C291.626689,373.442 287.113689,371.76 284.250689,367.942 L283.050689,368.842 Z M309.648689,368.655 C311.527689,366.512 312.413689,364.359 312.498689,362.264 C312.567689,360.228 311.848689,358.214 310.701689,356.506 C308.388689,353.082 304.223689,350.395 300.467689,348.854 L299.897689,350.242 C303.508689,351.723 307.374689,354.261 309.459689,357.346 C310.511689,358.894 311.084689,360.456 310.999689,362.203 C310.931689,363.891 310.220689,365.728 308.520689,367.667 L309.648689,368.655 Z M300.467689,348.854 C290.310689,344.687 277.175689,343.257 266.896689,348.415 L267.569689,349.756 C277.320689,344.863 289.970689,346.169 299.897689,350.242 L300.467689,348.854 Z M266.896689,348.415 C261.087689,351.33 256.850689,356.149 255.081689,361.619 C253.306689,367.105 254.028689,373.212 258.078689,378.611 L259.278689,377.711 C255.529689,372.713 254.880689,367.116 256.508689,362.081 C258.142689,357.029 262.082689,352.509 267.569689,349.756 L266.896689,348.415 Z M258.078689,378.611 C268.946689,393.103 294.073689,388.907 299.456689,370.861 L298.018689,370.432 C292.987689,387.302 269.405689,391.214 259.278689,377.711 L258.078689,378.611 Z M299.456689,370.861 C300.446689,367.541 299.628689,364.281 298.111689,361.398 C296.601689,358.541 294.339689,355.94 292.330689,353.931 L291.270689,354.991 C293.242689,356.963 295.363689,359.389 296.783689,362.097 C298.196689,364.78 298.856689,367.622 298.018689,370.432 L299.456689,370.861 Z M292.330689,353.931 C282.039689,343.64 267.652689,331.636 253.222689,327.439 L252.803689,328.88 C266.844689,332.963 281.004689,344.726 291.270689,354.991 L292.330689,353.931 Z M253.222689,327.439 C244.787689,324.996 235.483689,325.273 226.317689,326.528 C217.151689,327.785 208.030689,330.009 199.816689,331.468 L200.079689,332.944 C208.339689,331.477 217.431689,329.259 226.520689,328.014 C235.608689,326.768 244.599689,326.484 252.803689,328.88 L253.222689,327.439 Z M199.816689,331.468 C160.473489,338.454 121.426389,345.499 89.6403893,371.745 L90.5953893,372.901 C122.029689,346.946 160.673489,339.942 200.079689,332.944 L199.816689,331.468 Z M89.6403893,371.745 C87.0094893,373.917 83.1717893,376.727 79.8857893,379.96 C76.6183893,383.177 73.7689293,386.941 73.3595093,391.035 L74.8520893,391.184 C75.2058893,387.646 77.7144893,384.203 80.9382893,381.028 C84.1434893,377.869 87.9301893,375.101 90.5953893,372.901 L89.6403893,371.745 Z M73.3595093,391.035 C72.5126693,399.508 71.0747893,407.943 70.1805293,416.524 L71.6724593,416.68 C72.5608793,408.147 73.9991693,399.709 74.8520893,391.184 L73.3595093,391.035 Z M70.1805293,416.524 C69.1335593,426.585 67.0668393,436.485 65.6747293,446.558 L67.1606193,446.763 C68.5448293,436.741 70.6156293,426.816 71.6724593,416.68 L70.1805293,416.524 Z M65.6747293,446.558 C63.1324893,464.974 63.2857193,483.577 64.0497663,502.069 L65.5484893,502.007 C64.7852613,483.54 64.6293683,465.07 67.1606193,446.763 L65.6747293,446.558 Z M64.0497663,502.069 C64.7218123,518.333 65.5008393,534.635 69.9736393,550.452 L71.4169093,550.044 C66.9812793,534.394 66.2203393,518.266 65.5484893,502.007 L64.0497663,502.069 Z M69.9736393,550.452 C72.9044193,560.798 77.2377893,570.66 81.1540893,580.582 L82.5492893,580.031 C78.6222893,570.083 74.3159893,560.291 71.4169093,550.044 L69.9736393,550.452 Z M81.1540893,580.582 C87.1318893,595.725 93.1538893,613.673 101.988889,629.358 C110.835589,645.058 122.557389,658.579 139.986089,664.716 L140.484189,663.301 C123.540389,657.335 112.055189,644.167 103.295689,628.622 C94.5244893,613.063 88.5410893,595.211 82.5492893,580.031 L81.1540893,580.582 Z M139.986089,664.716 C161.845189,672.413 185.238689,678.669 205.604689,689.641 L206.315689,688.32 C185.791689,677.275 162.288589,670.98 140.484189,663.301 L139.986089,664.716 Z M205.604689,689.641 C213.711689,694.001 222.179689,701.484 226.948689,710.261 C231.689689,718.965 232.679689,728.776 225.935689,737.901 L227.141689,738.792 C234.323689,729.075 233.204689,718.609 228.265689,709.543 C223.352689,700.549 214.569689,692.771 206.315689,688.32 L205.604689,689.641 Z M225.935689,737.901 C224.902689,739.303 223.243689,740.878 221.373689,741.738 C219.557689,742.583 217.770689,742.643 216.298689,741.267 L215.274689,742.363 C217.357689,744.31 219.871689,744.091 222.006689,743.098 C224.085689,742.119 226.024689,740.298 227.141689,738.792 L225.935689,737.901 Z M216.298689,741.267 C213.072689,738.251 212.477689,733.91 213.363689,729.474 C214.247689,725.007 216.570689,720.679 219.018689,717.79 L217.872689,716.821 C215.330689,719.836 212.835689,724.5 211.892689,729.18 C210.951689,733.892 211.522689,738.855 215.274689,742.363 L216.298689,741.267 Z M219.018689,717.79 C229.625689,705.242 246.605689,700.311 262.389689,697.581 L262.134689,696.103 C246.310689,698.84 228.849689,703.836 217.872689,716.821 L219.018689,717.79 Z M262.389689,697.581 C285.188689,693.637 309.458689,691.512 332.088689,696.993 L332.440689,695.535 C309.570689,690.016 284.995689,692.15 262.134689,696.103 L262.389689,697.581 Z M332.088689,696.993 C347.419689,700.696 361.727689,707.261 376.574689,712.692 L377.089689,711.283 C362.298689,705.874 347.910689,699.279 332.440689,695.535 L332.088689,696.993 Z M376.574689,712.692 C392.729689,718.59 408.254689,719.16 425.191689,718.401 L425.124689,716.903 C408.247689,717.66 393.018689,717.118 377.089689,711.283 L376.574689,712.692 Z M425.191689,718.401 C453.481689,717.133 478.833689,714.636 502.137689,697.445 L501.246689,696.239 C478.295689,713.236 453.374689,715.637 425.124689,716.903 L425.191689,718.401 Z" id="path9_stroke" fill="#000000"></path>
        </g>
    </g>
</svg>