<?xml version="1.0" encoding="UTF-8"?>
<svg width="262px" height="183px" viewBox="0 0 262 183" version="1.1" xmlns="http://www.w3.org/2000/svg" xmlns:xlink="http://www.w3.org/1999/xlink">
    <!-- Generator: Sketch 48.2 (47327) - http://www.bohemiancoding.com/sketch -->
    <title>tr-corner-blob</title>
    <desc>Created with Sketch.</desc>
    <defs></defs>
    <g id="Desktop" stroke="none" stroke-width="1" fill="none" fill-rule="evenodd" transform="translate(-762.000000, 0.000000)">
        <g id="tr-corner-blob" transform="translate(693.000000, -158.000000)" fill-rule="nonzero">
            <g id="Group-3">
                <g id="Vector-30.4" transform="translate(0.000000, 56.000000)" fill="#F29954">
                    <g id="path0_fill-link" transform="translate(68.297126, 51.878713) rotate(-14.999995) translate(-68.297126, -51.878713) translate(7.797117, 14.878707)">
                        <path d="M60.5219094,5.69427089 C51.000108,6.76413106 41.4871065,7.27318114 31.949405,7.48944117 C25.881404,12.1011019 18.8697029,11.4960018 10.9387017,11.4960018 C8.64954135,11.4960018 0.731668114,9.94029155 0.141115022,13.4836021 C-1.42082022,22.8552036 10.4094016,26.2938041 14.5917023,32.016805 C18.2886029,37.0758058 25.862104,37.5978059 30.2778047,41.6864065 C34.1807053,45.3002071 38.560006,48.3006075 42.2572066,52.2154082 C46.9796073,57.2155089 52.0589081,61.7404096 56.7615089,66.7197104 C58.0696091,68.1047106 64.5640101,75.9777119 67.5591105,71.9842112 C69.7015109,69.1277108 71.5795112,66.1731103 73.7906115,63.2816099 C76.3229119,59.9701094 79.5157124,56.7429089 81.7948128,53.4509083 C90.9140142,40.2787063 106.127017,31.0379048 116.551018,18.5870029 C124.630019,8.9377714 118.328018,0 106.022017,0 C101.160016,4.26326067e-14 95.6720149,1.54166024 90.7660142,2.04134032 C80.6785126,3.06877048 70.606211,4.56120071 60.5219094,5.69427089 Z" id="path0_fill"></path>
                    </g>
                </g>
                <g id="Vector-30.3" transform="translate(93.000000, 107.000000)" fill="#F29954">
                    <g id="path0_fill-link" transform="translate(68.567126, 51.462713) rotate(-14.999995) translate(-68.567126, -51.462713) translate(8.067117, 14.462707)">
                        <path d="M60.5219094,5.69427089 C51.000108,6.76413106 41.4871065,7.27318114 31.949405,7.48944117 C25.881404,12.1011019 18.8697029,11.4960018 10.9387017,11.4960018 C8.64954135,11.4960018 0.731668114,9.94029155 0.141115022,13.4836021 C-1.42082022,22.8552036 10.4094016,26.2938041 14.5917023,32.016805 C18.2886029,37.0758058 25.862104,37.5978059 30.2778047,41.6864065 C34.1807053,45.3002071 38.560006,48.3006075 42.2572066,52.2154082 C46.9796073,57.2155089 52.0589081,61.7404096 56.7615089,66.7197104 C58.0696091,68.1047106 64.5640101,75.9777119 67.5591105,71.9842112 C69.7015109,69.1277108 71.5795112,66.1731103 73.7906115,63.2816099 C76.3229119,59.9701094 79.5157124,56.7429089 81.7948128,53.4509083 C90.9140142,40.2787063 106.127017,31.0379048 116.551018,18.5870029 C124.630019,8.9377714 118.328018,0 106.022017,0 C101.160016,4.26326067e-14 95.6720149,1.54166024 90.7660142,2.04134032 C80.6785126,3.06877048 70.606211,4.56120071 60.5219094,5.69427089 Z" id="path0_fill"></path>
                    </g>
                </g>
                <g id="Vector-30.5" transform="translate(201.000000, 149.000000)" fill="#1A4746">
                    <g id="path0_fill-link" transform="translate(68.713815, 51.404009) rotate(-14.999995) translate(-68.713815, -51.404009) translate(8.213815, 14.404009)">
                        <path d="M60.5219093,5.69427105 C51.0001079,6.76413122 41.4871064,7.2731813 31.9494049,7.48944133 C25.8814039,12.1011021 18.8697028,11.496002 10.9387016,11.496002 C8.64954125,11.496002 0.731668012,9.94029172 0.14111492,13.4836023 C-1.42082032,22.8552037 10.4094015,26.2938043 14.5917022,32.0168052 C18.2886028,37.075806 25.8621039,37.597806 30.2778046,41.6864067 C34.1807052,45.3002072 38.5600059,48.3006077 42.2572065,52.2154083 C46.9796072,57.2155091 52.058908,61.7404098 56.7615088,66.7197106 C58.069609,68.1047108 64.56401,75.977712 67.5591104,71.9842114 C69.7015108,69.127711 71.5795111,66.1731105 73.7906114,63.28161 C76.3229118,59.9701095 79.5157123,56.742909 81.7948127,53.4509085 C90.9140141,40.2787065 106.127016,31.037905 116.551018,18.5870031 C124.630019,8.93777156 118.328018,1.63960131e-07 106.022016,1.63960131e-07 C101.160016,1.63960173e-07 95.6720148,1.5416604 90.7660141,2.04134048 C80.6785125,3.06877064 70.6062109,4.56120088 60.5219093,5.69427105 Z" id="path0_fill"></path>
                    </g>
                </g>
                <g id="Vector-30.6" transform="translate(65.000000, 204.000000)" fill="#1A4746">
                    <g id="path0_fill-link" transform="translate(68.856315, 51.956609) rotate(-14.999995) translate(-68.856315, -51.956609) translate(8.356315, 14.956609)">
                        <path d="M60.5219093,5.69427105 C51.0001079,6.76413122 41.4871064,7.2731813 31.9494049,7.48944133 C25.8814039,12.1011021 18.8697028,11.496002 10.9387016,11.496002 C8.64954125,11.496002 0.731668012,9.94029172 0.14111492,13.4836023 C-1.42082032,22.8552037 10.4094015,26.2938043 14.5917022,32.0168052 C18.2886028,37.075806 25.8621039,37.597806 30.2778046,41.6864067 C34.1807052,45.3002072 38.5600059,48.3006077 42.2572065,52.2154083 C46.9796072,57.2155091 52.058908,61.7404098 56.7615088,66.7197106 C58.069609,68.1047108 64.56401,75.977712 67.5591104,71.9842114 C69.7015108,69.127711 71.5795111,66.1731105 73.7906114,63.28161 C76.3229118,59.9701095 79.5157123,56.742909 81.7948127,53.4509085 C90.9140141,40.2787065 106.127016,31.037905 116.551018,18.5870031 C124.630019,8.93777156 118.328018,1.63960095e-07 106.022016,1.63960095e-07 C101.160016,1.63960138e-07 95.6720148,1.5416604 90.7660141,2.04134048 C80.6785125,3.06877064 70.6062109,4.56120088 60.5219093,5.69427105 Z" id="path0_fill"></path>
                    </g>
                </g>
                <g id="Vector-30.8" transform="translate(303.000000, 197.000000)" fill="#F29954">
                    <g id="path0_fill-link" transform="translate(68.219826, 52.295313) rotate(-14.999995) translate(-68.219826, -52.295313) translate(7.719817, 15.295307)">
                        <path d="M60.5219094,5.69427089 C51.000108,6.76413106 41.4871065,7.27318114 31.949405,7.48944117 C25.881404,12.1011019 18.8697029,11.4960018 10.9387017,11.4960018 C8.64954135,11.4960018 0.731668114,9.94029155 0.141115022,13.4836021 C-1.42082022,22.8552036 10.4094016,26.2938041 14.5917023,32.016805 C18.2886029,37.0758058 25.862104,37.5978059 30.2778047,41.6864065 C34.1807053,45.3002071 38.560006,48.3006075 42.2572066,52.2154082 C46.9796073,57.2155089 52.0589081,61.7404096 56.7615089,66.7197104 C58.0696091,68.1047106 64.5640101,75.9777119 67.5591105,71.9842112 C69.7015109,69.1277108 71.5795112,66.1731103 73.7906115,63.2816099 C76.3229119,59.9701094 79.5157124,56.7429089 81.7948128,53.4509083 C90.9140142,40.2787063 106.127017,31.0379048 116.551018,18.5870029 C124.630019,8.9377714 118.328018,0 106.022017,0 C101.160016,4.26326067e-14 95.6720149,1.54166024 90.7660142,2.04134032 C80.6785126,3.06877048 70.606211,4.56120071 60.5219094,5.69427089 Z" id="path0_fill"></path>
                    </g>
                </g>
                <g id="Vector-30.9" transform="translate(159.000000, 255.000000)" fill="#F29954">
                    <g id="path0_fill-link" transform="translate(68.126326, 51.540112) rotate(-14.999995) translate(-68.126326, -51.540112) translate(7.626317, 14.540107)">
                        <path d="M60.5219094,5.69427089 C51.000108,6.76413106 41.4871065,7.27318114 31.949405,7.48944117 C25.881404,12.1011019 18.8697029,11.4960018 10.9387017,11.4960018 C8.64954135,11.4960018 0.731668114,9.94029155 0.141115022,13.4836021 C-1.42082022,22.8552036 10.4094016,26.2938041 14.5917023,32.016805 C18.2886029,37.0758058 25.862104,37.5978059 30.2778047,41.6864065 C34.1807053,45.3002071 38.560006,48.3006075 42.2572066,52.2154082 C46.9796073,57.2155089 52.0589081,61.7404096 56.7615089,66.7197104 C58.0696091,68.1047106 64.5640101,75.9777119 67.5591105,71.9842112 C69.7015109,69.1277108 71.5795112,66.1731103 73.7906115,63.2816099 C76.3229119,59.9701094 79.5157124,56.7429089 81.7948128,53.4509083 C90.9140142,40.2787063 106.127017,31.0379048 116.551018,18.5870029 C124.630019,8.9377714 118.328018,0 106.022017,0 C101.160016,4.26326067e-14 95.6720149,1.54166024 90.7660142,2.04134032 C80.6785126,3.06877048 70.606211,4.56120071 60.5219094,5.69427089 Z" id="path0_fill"></path>
                    </g>
                </g>
            </g>
            <g id="Vector-47" transform="translate(160.000000, 176.000000)" fill="#E8C4B5">
                <g id="path1_stroke-link">
                    <path d="M2,8.70191 C2,8.14963 1.552285,7.70191 1,7.70191 C0.447715,7.70191 0,8.14963 0,8.70191 L2,8.70191 Z M6.68388,40.1607 L5.76158,40.5472 L6.68388,40.1607 Z M31.8162,56.2671 L32.0363,57.2426 L31.8162,56.2671 Z M44.9645,4.72672 L45.331,3.79632 L44.9645,4.72672 Z M16.0657,8.63337 L16.8523,9.25088 L16.0657,8.63337 Z M17.7093,41.7371 L16.9533,42.3917 L17.7093,41.7371 Z M40.3763,36.3226 L39.4875,35.8643 L40.3763,36.3226 Z M30.5836,17.3377 L30.713,18.3293 L30.5836,17.3377 Z M22.2591,38.6813 C22.4641,39.1942 23.046,39.4438 23.5588,39.2388 C24.0717,39.0338 24.3212,38.4519 24.1163,37.9391 L22.2591,38.6813 Z M0,8.70191 C0.002219,19.8166 1.384259,30.0778 5.76158,40.5472 L7.60619,39.7743 C3.31443,29.554 1.997781,19.6835 2,8.70191 L0,8.70191 Z M5.76158,40.5472 C7.57588,44.8772 11.5916,49.5854 16.3576,52.9368 C21.1078,56.2771 26.822,58.4186 32.0363,57.2426 L31.5962,55.2916 C27.1783,56.288 22.0527,54.4966 17.508,51.3008 C12.979,48.116 9.24469,43.6847 7.60619,39.7743 L5.76158,40.5472 Z M32.0363,57.2426 C39.1505,55.6381 45.5022,50.556 50.0579,44.2516 C54.6148,37.9454 57.4692,30.288 57.4692,23.369 L55.4692,23.369 C55.4692,29.7812 52.8033,37.0377 48.4368,43.0802 C44.069,49.1246 38.0943,53.826 31.5962,55.2916 L32.0363,57.2426 Z M57.4692,23.369 C57.4692,18.6257 56.9434,14.6795 55.1139,11.4267 C53.266,8.14124 50.1703,5.70273 45.331,3.79632 L44.598,5.65713 C49.1598,7.45426 51.8165,9.64392 53.3707,12.4072 C54.9433,15.2032 55.4692,18.7264 55.4692,23.369 L57.4692,23.369 Z M45.331,3.79632 C39.3954,1.457983 34.0288,-0.24576 29.0688,0.029196 C24.0151,0.309343 19.5072,2.63028 15.2791,8.01587 L16.8523,9.25088 C20.7861,4.24003 24.792,2.26935 29.1795,2.02613 C33.6605,1.777725 38.6625,3.31887 44.598,5.65713 L45.331,3.79632 Z M15.2791,8.01587 C12.0792,12.092 10.97156,18.9065 11.3671,25.4397 C11.7632,31.9823 13.6894,38.6226 16.9533,42.3917 L18.4652,41.0825 C15.6171,37.7935 13.7479,31.6697 13.3634,25.3188 C12.9784,18.9586 14.105,12.7504 16.8523,9.25088 L15.2791,8.01587 Z M16.9533,42.3917 C21.3008,47.4122 26.2048,48.5163 30.6892,46.9661 C35.0614,45.4546 38.837,41.4892 41.2651,36.781 L39.4875,35.8643 C37.2035,40.2933 33.7613,43.788 30.0358,45.0759 C26.4225,46.325 22.3491,45.5676 18.4652,41.0825 L16.9533,42.3917 Z M41.2651,36.781 C43.1627,33.1013 43.0567,27.7271 41.2819,23.4583 C39.4942,19.1581 35.8401,15.643 30.4541,16.3461 L30.713,18.3293 C34.8701,17.7866 37.8457,20.4029 39.4352,24.2261 C41.0377,28.0806 41.0565,32.8218 39.4875,35.8643 L41.2651,36.781 Z M30.4541,16.3461 C25.5016,16.9926 23.0074,21.6145 21.9666,26.1937 C20.9157,30.8176 21.1875,36 22.2591,38.6813 L24.1163,37.9391 C23.2396,35.7456 22.925,31.0011 23.9168,26.637 C24.9189,22.2283 27.0967,18.8013 30.713,18.3293 L30.4541,16.3461 Z" id="path1_stroke"></path>
                </g>
            </g>
        </g>
    </g>
</svg>